<mxfile host="Electron" agent="Mozilla/5.0 (X11; Linux x86_64) AppleWebKit/537.36 (KHTML, like Gecko) draw.io/24.7.17 Chrome/128.0.6613.186 Electron/32.2.2 Safari/537.36" version="24.7.17">
  <diagram name="Page-1" id="958y8-Nk_WakkHYzs16g">
    <mxGraphModel dx="1074" dy="1216" grid="1" gridSize="10" guides="1" tooltips="1" connect="1" arrows="1" fold="1" page="1" pageScale="1" pageWidth="850" pageHeight="1100" math="0" shadow="0">
      <root>
        <mxCell id="0" />
        <mxCell id="1" parent="0" />
        <mxCell id="wpjNYEgVJ0VHxUHa6JMo-17" style="edgeStyle=orthogonalEdgeStyle;rounded=0;orthogonalLoop=1;jettySize=auto;html=1;exitX=1;exitY=0.5;exitDx=0;exitDy=0;entryX=0;entryY=0.5;entryDx=0;entryDy=0;startArrow=classic;startFill=1;" edge="1" parent="1" source="wpjNYEgVJ0VHxUHa6JMo-1" target="wpjNYEgVJ0VHxUHa6JMo-6">
          <mxGeometry relative="1" as="geometry" />
        </mxCell>
        <mxCell id="wpjNYEgVJ0VHxUHa6JMo-19" style="edgeStyle=orthogonalEdgeStyle;rounded=0;orthogonalLoop=1;jettySize=auto;html=1;exitX=0.5;exitY=1;exitDx=0;exitDy=0;entryX=0.5;entryY=0;entryDx=0;entryDy=0;" edge="1" parent="1" source="wpjNYEgVJ0VHxUHa6JMo-1">
          <mxGeometry relative="1" as="geometry">
            <mxPoint x="279.43" y="290.0000000000002" as="targetPoint" />
          </mxGeometry>
        </mxCell>
        <mxCell id="wpjNYEgVJ0VHxUHa6JMo-21" style="edgeStyle=orthogonalEdgeStyle;rounded=0;orthogonalLoop=1;jettySize=auto;html=1;exitX=0.5;exitY=1;exitDx=0;exitDy=0;entryX=0.5;entryY=0;entryDx=0;entryDy=0;" edge="1" parent="1" source="wpjNYEgVJ0VHxUHa6JMo-1" target="wpjNYEgVJ0VHxUHa6JMo-20">
          <mxGeometry relative="1" as="geometry" />
        </mxCell>
        <mxCell id="wpjNYEgVJ0VHxUHa6JMo-1" value="Главная страница сайта&lt;div&gt;&quot;Tech Haven&quot;&lt;/div&gt;" style="rounded=1;whiteSpace=wrap;html=1;" vertex="1" parent="1">
          <mxGeometry x="139.43" y="130" width="120" height="60" as="geometry" />
        </mxCell>
        <mxCell id="wpjNYEgVJ0VHxUHa6JMo-2" value="Политика персональных данных" style="rounded=1;whiteSpace=wrap;html=1;" vertex="1" parent="1">
          <mxGeometry x="300" y="40" width="120" height="60" as="geometry" />
        </mxCell>
        <mxCell id="wpjNYEgVJ0VHxUHa6JMo-3" value="Каталог товаров" style="rounded=1;whiteSpace=wrap;html=1;" vertex="1" parent="1">
          <mxGeometry x="360" y="220" width="120" height="60" as="geometry" />
        </mxCell>
        <mxCell id="wpjNYEgVJ0VHxUHa6JMo-5" value="Контакты" style="rounded=1;whiteSpace=wrap;html=1;" vertex="1" parent="1">
          <mxGeometry x="440" y="30" width="120" height="60" as="geometry" />
        </mxCell>
        <mxCell id="wpjNYEgVJ0VHxUHa6JMo-9" style="edgeStyle=orthogonalEdgeStyle;rounded=0;orthogonalLoop=1;jettySize=auto;html=1;exitX=0.5;exitY=0;exitDx=0;exitDy=0;entryX=0.5;entryY=1;entryDx=0;entryDy=0;startArrow=classic;startFill=1;" edge="1" parent="1" source="wpjNYEgVJ0VHxUHa6JMo-6" target="wpjNYEgVJ0VHxUHa6JMo-8">
          <mxGeometry relative="1" as="geometry" />
        </mxCell>
        <mxCell id="wpjNYEgVJ0VHxUHa6JMo-10" style="edgeStyle=orthogonalEdgeStyle;rounded=0;orthogonalLoop=1;jettySize=auto;html=1;exitX=0.5;exitY=0;exitDx=0;exitDy=0;entryX=0.5;entryY=1;entryDx=0;entryDy=0;" edge="1" parent="1" source="wpjNYEgVJ0VHxUHa6JMo-6" target="wpjNYEgVJ0VHxUHa6JMo-7">
          <mxGeometry relative="1" as="geometry" />
        </mxCell>
        <mxCell id="wpjNYEgVJ0VHxUHa6JMo-12" style="edgeStyle=orthogonalEdgeStyle;rounded=0;orthogonalLoop=1;jettySize=auto;html=1;exitX=0.5;exitY=1;exitDx=0;exitDy=0;entryX=0.5;entryY=0;entryDx=0;entryDy=0;startArrow=classic;startFill=1;" edge="1" parent="1" source="wpjNYEgVJ0VHxUHa6JMo-6" target="wpjNYEgVJ0VHxUHa6JMo-11">
          <mxGeometry relative="1" as="geometry" />
        </mxCell>
        <mxCell id="wpjNYEgVJ0VHxUHa6JMo-23" style="edgeStyle=orthogonalEdgeStyle;rounded=0;orthogonalLoop=1;jettySize=auto;html=1;exitX=0;exitY=0.5;exitDx=0;exitDy=0;entryX=0.5;entryY=1;entryDx=0;entryDy=0;" edge="1" parent="1" source="wpjNYEgVJ0VHxUHa6JMo-6" target="wpjNYEgVJ0VHxUHa6JMo-5">
          <mxGeometry relative="1" as="geometry" />
        </mxCell>
        <mxCell id="wpjNYEgVJ0VHxUHa6JMo-24" style="edgeStyle=orthogonalEdgeStyle;rounded=0;orthogonalLoop=1;jettySize=auto;html=1;exitX=0;exitY=0.5;exitDx=0;exitDy=0;entryX=0.5;entryY=1;entryDx=0;entryDy=0;" edge="1" parent="1" source="wpjNYEgVJ0VHxUHa6JMo-6" target="wpjNYEgVJ0VHxUHa6JMo-2">
          <mxGeometry relative="1" as="geometry">
            <Array as="points">
              <mxPoint x="360" y="160" />
            </Array>
          </mxGeometry>
        </mxCell>
        <mxCell id="wpjNYEgVJ0VHxUHa6JMo-25" style="edgeStyle=orthogonalEdgeStyle;rounded=0;orthogonalLoop=1;jettySize=auto;html=1;exitX=0;exitY=0.5;exitDx=0;exitDy=0;entryX=0.5;entryY=0;entryDx=0;entryDy=0;" edge="1" parent="1" source="wpjNYEgVJ0VHxUHa6JMo-6" target="wpjNYEgVJ0VHxUHa6JMo-3">
          <mxGeometry relative="1" as="geometry" />
        </mxCell>
        <mxCell id="wpjNYEgVJ0VHxUHa6JMo-6" value="Профиль" style="rounded=1;whiteSpace=wrap;html=1;" vertex="1" parent="1">
          <mxGeometry x="680" y="130" width="120" height="60" as="geometry" />
        </mxCell>
        <mxCell id="wpjNYEgVJ0VHxUHa6JMo-7" value="Админи панель&amp;nbsp;" style="rounded=1;whiteSpace=wrap;html=1;" vertex="1" parent="1">
          <mxGeometry x="600" y="20" width="120" height="60" as="geometry" />
        </mxCell>
        <mxCell id="wpjNYEgVJ0VHxUHa6JMo-8" value="Панель пользователя" style="rounded=1;whiteSpace=wrap;html=1;" vertex="1" parent="1">
          <mxGeometry x="760" y="20" width="120" height="60" as="geometry" />
        </mxCell>
        <mxCell id="wpjNYEgVJ0VHxUHa6JMo-15" style="edgeStyle=orthogonalEdgeStyle;rounded=0;orthogonalLoop=1;jettySize=auto;html=1;exitX=0.25;exitY=1;exitDx=0;exitDy=0;entryX=0.25;entryY=0;entryDx=0;entryDy=0;" edge="1" parent="1" source="wpjNYEgVJ0VHxUHa6JMo-11" target="wpjNYEgVJ0VHxUHa6JMo-14">
          <mxGeometry relative="1" as="geometry" />
        </mxCell>
        <mxCell id="wpjNYEgVJ0VHxUHa6JMo-11" value="Авторизация" style="rounded=1;whiteSpace=wrap;html=1;" vertex="1" parent="1">
          <mxGeometry x="680" y="260" width="120" height="60" as="geometry" />
        </mxCell>
        <mxCell id="wpjNYEgVJ0VHxUHa6JMo-27" style="edgeStyle=orthogonalEdgeStyle;rounded=0;orthogonalLoop=1;jettySize=auto;html=1;exitX=0.5;exitY=0;exitDx=0;exitDy=0;entryX=0;entryY=0.5;entryDx=0;entryDy=0;startArrow=classic;startFill=1;" edge="1" parent="1" source="wpjNYEgVJ0VHxUHa6JMo-13" target="wpjNYEgVJ0VHxUHa6JMo-6">
          <mxGeometry relative="1" as="geometry" />
        </mxCell>
        <mxCell id="wpjNYEgVJ0VHxUHa6JMo-13" value="Корзина" style="rounded=1;whiteSpace=wrap;html=1;" vertex="1" parent="1">
          <mxGeometry x="520" y="220" width="120" height="60" as="geometry" />
        </mxCell>
        <mxCell id="wpjNYEgVJ0VHxUHa6JMo-16" style="edgeStyle=orthogonalEdgeStyle;rounded=0;orthogonalLoop=1;jettySize=auto;html=1;exitX=0.75;exitY=0;exitDx=0;exitDy=0;entryX=0.75;entryY=1;entryDx=0;entryDy=0;" edge="1" parent="1" source="wpjNYEgVJ0VHxUHa6JMo-14" target="wpjNYEgVJ0VHxUHa6JMo-11">
          <mxGeometry relative="1" as="geometry" />
        </mxCell>
        <mxCell id="wpjNYEgVJ0VHxUHa6JMo-14" value="Регистрация" style="rounded=1;whiteSpace=wrap;html=1;" vertex="1" parent="1">
          <mxGeometry x="680" y="340" width="120" height="60" as="geometry" />
        </mxCell>
        <mxCell id="wpjNYEgVJ0VHxUHa6JMo-18" value="Преимущества над конкурентами" style="rounded=1;whiteSpace=wrap;html=1;" vertex="1" parent="1">
          <mxGeometry x="220" y="290" width="120" height="60" as="geometry" />
        </mxCell>
        <mxCell id="wpjNYEgVJ0VHxUHa6JMo-20" value="Категории товаров" style="rounded=1;whiteSpace=wrap;html=1;" vertex="1" parent="1">
          <mxGeometry x="49.43" y="290" width="120" height="60" as="geometry" />
        </mxCell>
        <mxCell id="wpjNYEgVJ0VHxUHa6JMo-30" style="edgeStyle=orthogonalEdgeStyle;rounded=0;orthogonalLoop=1;jettySize=auto;html=1;exitX=0.5;exitY=0;exitDx=0;exitDy=0;entryX=0.5;entryY=1;entryDx=0;entryDy=0;startArrow=block;startFill=1;" edge="1" parent="1" source="wpjNYEgVJ0VHxUHa6JMo-28" target="wpjNYEgVJ0VHxUHa6JMo-3">
          <mxGeometry relative="1" as="geometry" />
        </mxCell>
        <mxCell id="wpjNYEgVJ0VHxUHa6JMo-28" value="Выбор по параметрам" style="rounded=1;whiteSpace=wrap;html=1;" vertex="1" parent="1">
          <mxGeometry x="300" y="370" width="120" height="60" as="geometry" />
        </mxCell>
        <mxCell id="wpjNYEgVJ0VHxUHa6JMo-31" style="edgeStyle=orthogonalEdgeStyle;rounded=0;orthogonalLoop=1;jettySize=auto;html=1;exitX=0.5;exitY=0;exitDx=0;exitDy=0;entryX=0.5;entryY=1;entryDx=0;entryDy=0;startArrow=classic;startFill=1;" edge="1" parent="1" source="wpjNYEgVJ0VHxUHa6JMo-29" target="wpjNYEgVJ0VHxUHa6JMo-3">
          <mxGeometry relative="1" as="geometry" />
        </mxCell>
        <mxCell id="wpjNYEgVJ0VHxUHa6JMo-29" value="Визуальный выбор" style="rounded=1;whiteSpace=wrap;html=1;" vertex="1" parent="1">
          <mxGeometry x="425" y="370" width="120" height="60" as="geometry" />
        </mxCell>
      </root>
    </mxGraphModel>
  </diagram>
</mxfile>
